<svg viewBox="0 0 340 340" xmlns="http://www.w3.org/2000/svg">
  <title>Spotify</title>
  <path fill="#1ED760" d="M170 0C76.3 0 0 76.3 0 170s76.3 170 170 170 170-76.3 170-170S263.7 0 170 0zm78.1 245.2c-3.1 5.1-9.7 6.7-14.8 3.6-40.6-24.8-91.7-30.4-151.8-16.7-5.8 1.3-11.5-2.2-12.8-7.9-1.3-5.8 2.2-11.5 7.9-12.8 65.7-15 121.4-8.5 166.4 19.3 5.1 3.1 6.7 9.7 3.6 14.8zm21.1-47c-3.9 6.3-12.2 8.3-18.5 4.4-46.5-28.6-117.3-36.9-172.4-20.2-6.9 2.1-14.2-1.8-16.3-8.7-2.1-6.9 1.8-14.2 8.7-16.3 63-19.1 141.4-9.9 194.8 23 6.3 3.9 8.3 12.2 4.4 18.5zm1.8-49.1C216.6 114.5 125.7 111.8 73.2 127c-8.2 2.4-16.9-2.3-19.3-10.6-2.4-8.2 2.3-16.9 10.6-19.3 60.5-17.5 161.5-14.2 223.3 23.4 7.5 4.6 9.9 14.4 5.3 21.9-4.6 7.6-14.4 10-21.9 5.4z"/>
</svg>